<mxfile host="65bd71144e">
    <diagram id="I9FQbxelefLgMyFjd0UU" name="Page-1">
        <mxGraphModel dx="1354" dy="1948" grid="1" gridSize="10" guides="1" tooltips="1" connect="1" arrows="1" fold="1" page="1" pageScale="1" pageWidth="1169" pageHeight="827" math="0" shadow="0">
            <root>
                <mxCell id="0"/>
                <mxCell id="1" parent="0"/>
                <mxCell id="135" value="" style="swimlane;startSize=0;" parent="1" vertex="1">
                    <mxGeometry x="1280" y="90" width="992" height="600" as="geometry"/>
                </mxCell>
                <mxCell id="136" value="" style="rounded=0;whiteSpace=wrap;html=1;" parent="135" vertex="1">
                    <mxGeometry width="360" height="80" as="geometry"/>
                </mxCell>
                <mxCell id="137" value="" style="rounded=0;whiteSpace=wrap;html=1;" parent="135" vertex="1">
                    <mxGeometry width="992" height="600" as="geometry"/>
                </mxCell>
                <mxCell id="143" value="&lt;div style=&quot;text-align: justify; font-size: 16px;&quot;&gt;Villa Bella&lt;/div&gt;&lt;div style=&quot;text-align: justify; font-size: 14px;&quot;&gt;&lt;span style=&quot;background-color: initial;&quot;&gt;&lt;font style=&quot;font-size: 14px;&quot;&gt;Petite villa au coeur de Toulon ...&lt;/font&gt;&lt;/span&gt;&lt;/div&gt;&lt;div style=&quot;text-align: right;&quot;&gt;&lt;span style=&quot;font-size: 20px;&quot;&gt;80 € / pers&lt;/span&gt;&lt;/div&gt;" style="rounded=0;whiteSpace=wrap;html=1;align=left;" parent="135" vertex="1">
                    <mxGeometry x="21" y="330" width="220" height="90" as="geometry"/>
                </mxCell>
                <mxCell id="150" value="&lt;font style=&quot;font-size: 24px;&quot;&gt;Connexion&amp;nbsp; Inscription&amp;nbsp;&amp;nbsp;&lt;/font&gt;" style="rounded=0;whiteSpace=wrap;html=1;align=right;" parent="135" vertex="1">
                    <mxGeometry width="992" height="80" as="geometry"/>
                </mxCell>
                <mxCell id="138" value="Search" style="strokeWidth=1;shadow=0;dashed=0;align=center;html=1;shape=mxgraph.mockup.forms.searchBox;strokeColor=#999999;mainText=;strokeColor2=#008cff;fontColor=#666666;fontSize=17;align=left;spacingLeft=3;" parent="135" vertex="1">
                    <mxGeometry x="81" y="20" width="160" height="40" as="geometry"/>
                </mxCell>
                <mxCell id="140" value="Filtres" style="ellipse;whiteSpace=wrap;html=1;aspect=fixed;" parent="135" vertex="1">
                    <mxGeometry x="257.5" y="17.5" width="45" height="45" as="geometry"/>
                </mxCell>
                <mxCell id="141" value="Logo" style="ellipse;whiteSpace=wrap;html=1;" parent="135" vertex="1">
                    <mxGeometry x="7.5" y="10" width="60" height="60" as="geometry"/>
                </mxCell>
                <mxCell id="233" value="&lt;font style=&quot;font-size: 50px;&quot;&gt;Picture&lt;/font&gt;" style="whiteSpace=wrap;html=1;aspect=fixed;fontSize=20;" vertex="1" parent="135">
                    <mxGeometry x="20" y="100" width="220" height="220" as="geometry"/>
                </mxCell>
                <mxCell id="234" value="&lt;div style=&quot;text-align: justify; font-size: 16px;&quot;&gt;Villa Bella&lt;/div&gt;&lt;div style=&quot;text-align: justify; font-size: 14px;&quot;&gt;&lt;span style=&quot;background-color: initial;&quot;&gt;&lt;font style=&quot;font-size: 14px;&quot;&gt;Petite villa au coeur de Toulon ...&lt;/font&gt;&lt;/span&gt;&lt;/div&gt;&lt;div style=&quot;text-align: right;&quot;&gt;&lt;span style=&quot;font-size: 20px;&quot;&gt;80 € / pers&lt;/span&gt;&lt;/div&gt;" style="rounded=0;whiteSpace=wrap;html=1;align=left;" vertex="1" parent="135">
                    <mxGeometry x="257.5" y="330" width="220" height="90" as="geometry"/>
                </mxCell>
                <mxCell id="235" value="&lt;font style=&quot;font-size: 50px;&quot;&gt;Picture&lt;/font&gt;" style="whiteSpace=wrap;html=1;aspect=fixed;fontSize=20;" vertex="1" parent="135">
                    <mxGeometry x="257.5" y="100" width="220" height="220" as="geometry"/>
                </mxCell>
                <mxCell id="236" value="&lt;div style=&quot;text-align: justify; font-size: 16px;&quot;&gt;Villa Bella&lt;/div&gt;&lt;div style=&quot;text-align: justify; font-size: 14px;&quot;&gt;&lt;span style=&quot;background-color: initial;&quot;&gt;&lt;font style=&quot;font-size: 14px;&quot;&gt;Petite villa au coeur de Toulon ...&lt;/font&gt;&lt;/span&gt;&lt;/div&gt;&lt;div style=&quot;text-align: right;&quot;&gt;&lt;span style=&quot;font-size: 20px;&quot;&gt;80 € / pers&lt;/span&gt;&lt;/div&gt;" style="rounded=0;whiteSpace=wrap;html=1;align=left;" vertex="1" parent="135">
                    <mxGeometry x="501" y="330" width="220" height="90" as="geometry"/>
                </mxCell>
                <mxCell id="237" value="&lt;font style=&quot;font-size: 50px;&quot;&gt;Picture&lt;/font&gt;" style="whiteSpace=wrap;html=1;aspect=fixed;fontSize=20;" vertex="1" parent="135">
                    <mxGeometry x="500" y="100" width="220" height="220" as="geometry"/>
                </mxCell>
                <mxCell id="238" value="&lt;div style=&quot;text-align: justify; font-size: 16px;&quot;&gt;Villa Bella&lt;/div&gt;&lt;div style=&quot;text-align: justify; font-size: 14px;&quot;&gt;&lt;span style=&quot;background-color: initial;&quot;&gt;&lt;font style=&quot;font-size: 14px;&quot;&gt;Petite villa au coeur de Toulon ...&lt;/font&gt;&lt;/span&gt;&lt;/div&gt;&lt;div style=&quot;text-align: right;&quot;&gt;&lt;span style=&quot;font-size: 20px;&quot;&gt;80 € / pers&lt;/span&gt;&lt;/div&gt;" style="rounded=0;whiteSpace=wrap;html=1;align=left;" vertex="1" parent="135">
                    <mxGeometry x="741" y="330" width="220" height="90" as="geometry"/>
                </mxCell>
                <mxCell id="239" value="&lt;font style=&quot;font-size: 50px;&quot;&gt;Picture&lt;/font&gt;" style="whiteSpace=wrap;html=1;aspect=fixed;fontSize=20;" vertex="1" parent="135">
                    <mxGeometry x="740" y="100" width="220" height="220" as="geometry"/>
                </mxCell>
                <mxCell id="240" value="&#10;&lt;span style=&quot;color: rgb(240, 240, 240); font-family: Helvetica; font-size: 50px; font-style: normal; font-variant-ligatures: normal; font-variant-caps: normal; font-weight: 400; letter-spacing: normal; orphans: 2; text-align: center; text-indent: 0px; text-transform: none; widows: 2; word-spacing: 0px; -webkit-text-stroke-width: 0px; background-color: rgb(42, 37, 47); text-decoration-thickness: initial; text-decoration-style: initial; text-decoration-color: initial; float: none; display: inline !important;&quot;&gt;Picture&lt;/span&gt;&#10;&#10;" style="rounded=0;whiteSpace=wrap;html=1;" vertex="1" parent="135">
                    <mxGeometry x="22" y="450" width="219" height="150" as="geometry"/>
                </mxCell>
                <mxCell id="241" value="&#10;&lt;span style=&quot;color: rgb(240, 240, 240); font-family: Helvetica; font-size: 50px; font-style: normal; font-variant-ligatures: normal; font-variant-caps: normal; font-weight: 400; letter-spacing: normal; orphans: 2; text-align: center; text-indent: 0px; text-transform: none; widows: 2; word-spacing: 0px; -webkit-text-stroke-width: 0px; background-color: rgb(42, 37, 47); text-decoration-thickness: initial; text-decoration-style: initial; text-decoration-color: initial; float: none; display: inline !important;&quot;&gt;Picture&lt;/span&gt;&#10;&#10;" style="rounded=0;whiteSpace=wrap;html=1;" vertex="1" parent="135">
                    <mxGeometry x="500" y="450" width="219" height="150" as="geometry"/>
                </mxCell>
                <mxCell id="242" value="&#10;&lt;span style=&quot;color: rgb(240, 240, 240); font-family: Helvetica; font-size: 50px; font-style: normal; font-variant-ligatures: normal; font-variant-caps: normal; font-weight: 400; letter-spacing: normal; orphans: 2; text-align: center; text-indent: 0px; text-transform: none; widows: 2; word-spacing: 0px; -webkit-text-stroke-width: 0px; background-color: rgb(42, 37, 47); text-decoration-thickness: initial; text-decoration-style: initial; text-decoration-color: initial; float: none; display: inline !important;&quot;&gt;Picture&lt;/span&gt;&#10;&#10;" style="rounded=0;whiteSpace=wrap;html=1;" vertex="1" parent="135">
                    <mxGeometry x="258.5" y="450" width="219" height="150" as="geometry"/>
                </mxCell>
                <mxCell id="243" value="&#10;&lt;span style=&quot;color: rgb(240, 240, 240); font-family: Helvetica; font-size: 50px; font-style: normal; font-variant-ligatures: normal; font-variant-caps: normal; font-weight: 400; letter-spacing: normal; orphans: 2; text-align: center; text-indent: 0px; text-transform: none; widows: 2; word-spacing: 0px; -webkit-text-stroke-width: 0px; background-color: rgb(42, 37, 47); text-decoration-thickness: initial; text-decoration-style: initial; text-decoration-color: initial; float: none; display: inline !important;&quot;&gt;Picture&lt;/span&gt;&#10;&#10;" style="rounded=0;whiteSpace=wrap;html=1;" vertex="1" parent="135">
                    <mxGeometry x="742" y="450" width="219" height="150" as="geometry"/>
                </mxCell>
                <mxCell id="285" value="" style="swimlane;startSize=0;" vertex="1" parent="1">
                    <mxGeometry x="2427" y="80" width="992" height="600" as="geometry"/>
                </mxCell>
                <mxCell id="286" value="" style="rounded=0;whiteSpace=wrap;html=1;" vertex="1" parent="285">
                    <mxGeometry width="360" height="80" as="geometry"/>
                </mxCell>
                <mxCell id="287" value="" style="rounded=0;whiteSpace=wrap;html=1;" vertex="1" parent="285">
                    <mxGeometry width="992" height="600" as="geometry"/>
                </mxCell>
                <mxCell id="288" value="&lt;div style=&quot;text-align: justify; font-size: 16px;&quot;&gt;Villa Bella&lt;/div&gt;&lt;div style=&quot;text-align: justify; font-size: 14px;&quot;&gt;&lt;span style=&quot;background-color: initial;&quot;&gt;&lt;font style=&quot;font-size: 14px;&quot;&gt;Petite villa au coeur de Toulon ...&lt;/font&gt;&lt;/span&gt;&lt;/div&gt;&lt;div style=&quot;text-align: right;&quot;&gt;&lt;span style=&quot;font-size: 20px;&quot;&gt;80 € / pers&lt;/span&gt;&lt;/div&gt;" style="rounded=0;whiteSpace=wrap;html=1;align=left;" vertex="1" parent="285">
                    <mxGeometry x="21" y="330" width="220" height="90" as="geometry"/>
                </mxCell>
                <mxCell id="289" value="&lt;font style=&quot;font-size: 24px;&quot;&gt;Connexion&amp;nbsp; Inscription&amp;nbsp;&amp;nbsp;&lt;/font&gt;" style="rounded=0;whiteSpace=wrap;html=1;align=right;" vertex="1" parent="285">
                    <mxGeometry width="992" height="80" as="geometry"/>
                </mxCell>
                <mxCell id="290" value="Search" style="strokeWidth=1;shadow=0;dashed=0;align=center;html=1;shape=mxgraph.mockup.forms.searchBox;strokeColor=#999999;mainText=;strokeColor2=#008cff;fontColor=#666666;fontSize=17;align=left;spacingLeft=3;" vertex="1" parent="285">
                    <mxGeometry x="81" y="20" width="160" height="40" as="geometry"/>
                </mxCell>
                <mxCell id="291" value="Filtres" style="ellipse;whiteSpace=wrap;html=1;aspect=fixed;" vertex="1" parent="285">
                    <mxGeometry x="257.5" y="17.5" width="45" height="45" as="geometry"/>
                </mxCell>
                <mxCell id="292" value="Logo" style="ellipse;whiteSpace=wrap;html=1;" vertex="1" parent="285">
                    <mxGeometry x="7.5" y="10" width="60" height="60" as="geometry"/>
                </mxCell>
                <mxCell id="293" value="&lt;font style=&quot;font-size: 50px;&quot;&gt;Picture&lt;/font&gt;" style="whiteSpace=wrap;html=1;aspect=fixed;fontSize=20;" vertex="1" parent="285">
                    <mxGeometry x="20" y="100" width="220" height="220" as="geometry"/>
                </mxCell>
                <mxCell id="294" value="&lt;div style=&quot;text-align: justify; font-size: 16px;&quot;&gt;Villa Bella&lt;/div&gt;&lt;div style=&quot;text-align: justify; font-size: 14px;&quot;&gt;&lt;span style=&quot;background-color: initial;&quot;&gt;&lt;font style=&quot;font-size: 14px;&quot;&gt;Petite villa au coeur de Toulon ...&lt;/font&gt;&lt;/span&gt;&lt;/div&gt;&lt;div style=&quot;text-align: right;&quot;&gt;&lt;span style=&quot;font-size: 20px;&quot;&gt;80 € / pers&lt;/span&gt;&lt;/div&gt;" style="rounded=0;whiteSpace=wrap;html=1;align=left;" vertex="1" parent="285">
                    <mxGeometry x="257.5" y="330" width="220" height="90" as="geometry"/>
                </mxCell>
                <mxCell id="295" value="&lt;font style=&quot;font-size: 50px;&quot;&gt;Picture&lt;/font&gt;" style="whiteSpace=wrap;html=1;aspect=fixed;fontSize=20;" vertex="1" parent="285">
                    <mxGeometry x="257.5" y="100" width="220" height="220" as="geometry"/>
                </mxCell>
                <mxCell id="296" value="&lt;div style=&quot;text-align: justify; font-size: 16px;&quot;&gt;Villa Bella&lt;/div&gt;&lt;div style=&quot;text-align: justify; font-size: 14px;&quot;&gt;&lt;span style=&quot;background-color: initial;&quot;&gt;&lt;font style=&quot;font-size: 14px;&quot;&gt;Petite villa au coeur de Toulon ...&lt;/font&gt;&lt;/span&gt;&lt;/div&gt;&lt;div style=&quot;text-align: right;&quot;&gt;&lt;span style=&quot;font-size: 20px;&quot;&gt;80 € / pers&lt;/span&gt;&lt;/div&gt;" style="rounded=0;whiteSpace=wrap;html=1;align=left;" vertex="1" parent="285">
                    <mxGeometry x="501" y="330" width="220" height="90" as="geometry"/>
                </mxCell>
                <mxCell id="297" value="&lt;font style=&quot;font-size: 50px;&quot;&gt;Picture&lt;/font&gt;" style="whiteSpace=wrap;html=1;aspect=fixed;fontSize=20;" vertex="1" parent="285">
                    <mxGeometry x="500" y="100" width="220" height="220" as="geometry"/>
                </mxCell>
                <mxCell id="298" value="&lt;div style=&quot;text-align: justify; font-size: 16px;&quot;&gt;Villa Bella&lt;/div&gt;&lt;div style=&quot;text-align: justify; font-size: 14px;&quot;&gt;&lt;span style=&quot;background-color: initial;&quot;&gt;&lt;font style=&quot;font-size: 14px;&quot;&gt;Petite villa au coeur de Toulon ...&lt;/font&gt;&lt;/span&gt;&lt;/div&gt;&lt;div style=&quot;text-align: right;&quot;&gt;&lt;span style=&quot;font-size: 20px;&quot;&gt;80 € / pers&lt;/span&gt;&lt;/div&gt;" style="rounded=0;whiteSpace=wrap;html=1;align=left;" vertex="1" parent="285">
                    <mxGeometry x="741" y="330" width="220" height="90" as="geometry"/>
                </mxCell>
                <mxCell id="299" value="&lt;font style=&quot;font-size: 50px;&quot;&gt;Picture&lt;/font&gt;" style="whiteSpace=wrap;html=1;aspect=fixed;fontSize=20;" vertex="1" parent="285">
                    <mxGeometry x="740" y="100" width="220" height="220" as="geometry"/>
                </mxCell>
                <mxCell id="300" value="&#10;&lt;span style=&quot;color: rgb(240, 240, 240); font-family: Helvetica; font-size: 50px; font-style: normal; font-variant-ligatures: normal; font-variant-caps: normal; font-weight: 400; letter-spacing: normal; orphans: 2; text-align: center; text-indent: 0px; text-transform: none; widows: 2; word-spacing: 0px; -webkit-text-stroke-width: 0px; background-color: rgb(42, 37, 47); text-decoration-thickness: initial; text-decoration-style: initial; text-decoration-color: initial; float: none; display: inline !important;&quot;&gt;Picture&lt;/span&gt;&#10;&#10;" style="rounded=0;whiteSpace=wrap;html=1;" vertex="1" parent="285">
                    <mxGeometry x="22" y="450" width="219" height="150" as="geometry"/>
                </mxCell>
                <mxCell id="301" value="&#10;&lt;span style=&quot;color: rgb(240, 240, 240); font-family: Helvetica; font-size: 50px; font-style: normal; font-variant-ligatures: normal; font-variant-caps: normal; font-weight: 400; letter-spacing: normal; orphans: 2; text-align: center; text-indent: 0px; text-transform: none; widows: 2; word-spacing: 0px; -webkit-text-stroke-width: 0px; background-color: rgb(42, 37, 47); text-decoration-thickness: initial; text-decoration-style: initial; text-decoration-color: initial; float: none; display: inline !important;&quot;&gt;Picture&lt;/span&gt;&#10;&#10;" style="rounded=0;whiteSpace=wrap;html=1;" vertex="1" parent="285">
                    <mxGeometry x="500" y="450" width="219" height="150" as="geometry"/>
                </mxCell>
                <mxCell id="302" value="&#10;&lt;span style=&quot;color: rgb(240, 240, 240); font-family: Helvetica; font-size: 50px; font-style: normal; font-variant-ligatures: normal; font-variant-caps: normal; font-weight: 400; letter-spacing: normal; orphans: 2; text-align: center; text-indent: 0px; text-transform: none; widows: 2; word-spacing: 0px; -webkit-text-stroke-width: 0px; background-color: rgb(42, 37, 47); text-decoration-thickness: initial; text-decoration-style: initial; text-decoration-color: initial; float: none; display: inline !important;&quot;&gt;Picture&lt;/span&gt;&#10;&#10;" style="rounded=0;whiteSpace=wrap;html=1;" vertex="1" parent="285">
                    <mxGeometry x="258.5" y="450" width="219" height="150" as="geometry"/>
                </mxCell>
                <mxCell id="303" value="&#10;&lt;span style=&quot;color: rgb(240, 240, 240); font-family: Helvetica; font-size: 50px; font-style: normal; font-variant-ligatures: normal; font-variant-caps: normal; font-weight: 400; letter-spacing: normal; orphans: 2; text-align: center; text-indent: 0px; text-transform: none; widows: 2; word-spacing: 0px; -webkit-text-stroke-width: 0px; background-color: rgb(42, 37, 47); text-decoration-thickness: initial; text-decoration-style: initial; text-decoration-color: initial; float: none; display: inline !important;&quot;&gt;Picture&lt;/span&gt;&#10;&#10;" style="rounded=0;whiteSpace=wrap;html=1;" vertex="1" parent="285">
                    <mxGeometry x="742" y="450" width="219" height="150" as="geometry"/>
                </mxCell>
                <mxCell id="304" value="&lt;font style=&quot;font-size: 50px;&quot;&gt;Picture&lt;/font&gt;" style="whiteSpace=wrap;html=1;aspect=fixed;fontSize=20;" vertex="1" parent="285">
                    <mxGeometry x="416" y="130" width="250" height="300" as="geometry"/>
                </mxCell>
                <mxCell id="305" value="&lt;div style=&quot;text-align: justify; font-size: 16px;&quot;&gt;Villa Bella&lt;/div&gt;&lt;div style=&quot;text-align: justify; font-size: 14px;&quot;&gt;&lt;span style=&quot;background-color: initial;&quot;&gt;&lt;font style=&quot;font-size: 14px;&quot;&gt;Petite villa au coeur de Toulon ...&lt;/font&gt;&lt;/span&gt;&lt;/div&gt;&lt;div style=&quot;text-align: right;&quot;&gt;&lt;span style=&quot;font-size: 20px;&quot;&gt;80 € / pers&lt;/span&gt;&lt;/div&gt;" style="rounded=0;whiteSpace=wrap;html=1;align=left;" vertex="1" parent="285">
                    <mxGeometry x="416" y="440" width="250" height="90" as="geometry"/>
                </mxCell>
                <mxCell id="306" value="" style="rounded=1;whiteSpace=wrap;html=1;fontSize=50;" vertex="1" parent="285">
                    <mxGeometry x="146" y="130" width="700" height="420" as="geometry"/>
                </mxCell>
                <mxCell id="307" value="&lt;p style=&quot;line-height: 50%;&quot;&gt;&lt;br&gt;&lt;/p&gt;" style="rounded=0;whiteSpace=wrap;html=1;fontSize=50;" vertex="1" parent="285">
                    <mxGeometry x="146" y="340" width="342" height="100" as="geometry"/>
                </mxCell>
                <mxCell id="308" value="" style="rounded=1;whiteSpace=wrap;html=1;fontSize=30;" vertex="1" parent="285">
                    <mxGeometry x="164" y="380" width="140" height="60" as="geometry"/>
                </mxCell>
                <mxCell id="309" value="&lt;font style=&quot;font-size: 20px;&quot;&gt;€ ---&lt;/font&gt;" style="rounded=0;whiteSpace=wrap;html=1;fontSize=30;align=left;" vertex="1" parent="285">
                    <mxGeometry x="174" y="410" width="120" height="30" as="geometry"/>
                </mxCell>
                <mxCell id="310" value="&lt;font style=&quot;font-size: 20px;&quot;&gt;Minimum&lt;/font&gt;" style="rounded=0;whiteSpace=wrap;html=1;fontSize=30;align=left;" vertex="1" parent="285">
                    <mxGeometry x="174" y="380" width="120" height="30" as="geometry"/>
                </mxCell>
                <mxCell id="311" value="" style="rounded=1;whiteSpace=wrap;html=1;fontSize=30;" vertex="1" parent="285">
                    <mxGeometry x="324" y="380" width="140" height="60" as="geometry"/>
                </mxCell>
                <mxCell id="312" value="&lt;font style=&quot;font-size: 20px;&quot;&gt;€ ---&lt;/font&gt;" style="rounded=0;whiteSpace=wrap;html=1;fontSize=30;align=left;" vertex="1" parent="285">
                    <mxGeometry x="334" y="410" width="120" height="30" as="geometry"/>
                </mxCell>
                <mxCell id="313" value="&lt;font style=&quot;font-size: 20px;&quot;&gt;Maximum&lt;/font&gt;" style="rounded=0;whiteSpace=wrap;html=1;fontSize=30;align=left;" vertex="1" parent="285">
                    <mxGeometry x="334" y="380" width="120" height="30" as="geometry"/>
                </mxCell>
                <mxCell id="314" value="&lt;p style=&quot;line-height: 50%;&quot;&gt;&lt;br&gt;&lt;/p&gt;" style="rounded=0;whiteSpace=wrap;html=1;fontSize=50;" vertex="1" parent="285">
                    <mxGeometry x="146" y="220" width="340" height="100" as="geometry"/>
                </mxCell>
                <mxCell id="315" value="Option 1" style="strokeWidth=1;shadow=0;dashed=0;align=center;html=1;shape=mxgraph.mockup.forms.comboBox;strokeColor=#999999;fillColor=#ddeeff;align=left;fillColor2=#aaddff;mainText=;fontColor=#666666;fontSize=17;spacingLeft=3;" vertex="1" parent="285">
                    <mxGeometry x="181" y="272.5" width="270" height="35" as="geometry"/>
                </mxCell>
                <mxCell id="316" value="Valider" style="strokeWidth=1;shadow=0;dashed=0;align=center;html=1;shape=mxgraph.mockup.buttons.button;strokeColor=#666666;fontColor=#ffffff;mainText=;buttonStyle=round;fontSize=17;fontStyle=1;fillColor=#008cff;whiteSpace=wrap;" vertex="1" parent="285">
                    <mxGeometry x="419" y="475" width="150" height="50" as="geometry"/>
                </mxCell>
                <mxCell id="317" value="&lt;span style=&quot;color: rgb(240, 240, 240); font-family: Helvetica; font-size: 20px; font-style: normal; font-variant-ligatures: normal; font-variant-caps: normal; font-weight: 400; letter-spacing: normal; orphans: 2; text-indent: 0px; text-transform: none; widows: 2; word-spacing: 0px; -webkit-text-stroke-width: 0px; background-color: rgb(42, 37, 47); text-decoration-thickness: initial; text-decoration-style: initial; text-decoration-color: initial; float: none; display: inline !important;&quot;&gt;Fourchette de prix&lt;/span&gt;" style="text;whiteSpace=wrap;html=1;fontSize=20;align=center;" vertex="1" parent="285">
                    <mxGeometry x="219" y="340" width="190" height="30" as="geometry"/>
                </mxCell>
                <mxCell id="318" value="&lt;span style=&quot;color: rgb(240, 240, 240); font-family: Helvetica; font-size: 20px; font-style: normal; font-variant-ligatures: normal; font-variant-caps: normal; font-weight: 400; letter-spacing: normal; orphans: 2; text-indent: 0px; text-transform: none; widows: 2; word-spacing: 0px; -webkit-text-stroke-width: 0px; background-color: rgb(42, 37, 47); text-decoration-thickness: initial; text-decoration-style: initial; text-decoration-color: initial; float: none; display: inline !important;&quot;&gt;Type de Logement&lt;/span&gt;" style="text;whiteSpace=wrap;html=1;fontSize=15;align=center;" vertex="1" parent="285">
                    <mxGeometry x="214" y="232.5" width="200" height="30" as="geometry"/>
                </mxCell>
                <mxCell id="319" value="" style="rounded=0;whiteSpace=wrap;html=1;fontSize=20;" vertex="1" parent="285">
                    <mxGeometry x="494" y="220" width="352" height="100" as="geometry"/>
                </mxCell>
                <mxCell id="320" value="1" style="strokeWidth=1;shadow=0;dashed=0;align=center;html=1;shape=mxgraph.mockup.forms.comboBox;strokeColor=#999999;fillColor=#ddeeff;align=left;fillColor2=#aaddff;mainText=;fontColor=#666666;fontSize=17;spacingLeft=3;" vertex="1" parent="285">
                    <mxGeometry x="626" y="272.5" width="55" height="35" as="geometry"/>
                </mxCell>
                <mxCell id="321" value="Adulte" style="rounded=0;whiteSpace=wrap;html=1;fontSize=25;" vertex="1" parent="285">
                    <mxGeometry x="546" y="272.5" width="75" height="35" as="geometry"/>
                </mxCell>
                <mxCell id="322" value="1" style="strokeWidth=1;shadow=0;dashed=0;align=center;html=1;shape=mxgraph.mockup.forms.comboBox;strokeColor=#999999;fillColor=#ddeeff;align=left;fillColor2=#aaddff;mainText=;fontColor=#666666;fontSize=17;spacingLeft=3;" vertex="1" parent="285">
                    <mxGeometry x="771" y="272.5" width="55" height="35" as="geometry"/>
                </mxCell>
                <mxCell id="323" value="Enfant" style="rounded=0;whiteSpace=wrap;html=1;fontSize=25;" vertex="1" parent="285">
                    <mxGeometry x="691" y="272.5" width="75" height="35" as="geometry"/>
                </mxCell>
                <mxCell id="324" value="&lt;span style=&quot;color: rgb(240, 240, 240); font-family: Helvetica; font-size: 20px; font-style: normal; font-variant-ligatures: normal; font-variant-caps: normal; font-weight: 400; letter-spacing: normal; orphans: 2; text-indent: 0px; text-transform: none; widows: 2; word-spacing: 0px; -webkit-text-stroke-width: 0px; background-color: rgb(42, 37, 47); text-decoration-thickness: initial; text-decoration-style: initial; text-decoration-color: initial; float: none; display: inline !important;&quot;&gt;Nombre de personnes&lt;/span&gt;" style="text;whiteSpace=wrap;html=1;fontSize=15;align=center;" vertex="1" parent="285">
                    <mxGeometry x="566" y="220" width="230" height="30" as="geometry"/>
                </mxCell>
                <mxCell id="325" value="&lt;p style=&quot;line-height: 50%;&quot;&gt;&lt;br&gt;&lt;/p&gt;" style="rounded=0;whiteSpace=wrap;html=1;fontSize=50;" vertex="1" parent="285">
                    <mxGeometry x="494" y="340" width="352" height="100" as="geometry"/>
                </mxCell>
                <mxCell id="326" value="" style="rounded=1;whiteSpace=wrap;html=1;fontSize=30;" vertex="1" parent="285">
                    <mxGeometry x="531" y="375" width="140" height="60" as="geometry"/>
                </mxCell>
                <mxCell id="327" value="&lt;font style=&quot;font-size: 15px;&quot;&gt;jj/mm/YYYY&lt;/font&gt;" style="rounded=0;whiteSpace=wrap;html=1;fontSize=30;align=center;" vertex="1" parent="285">
                    <mxGeometry x="541" y="405" width="120" height="30" as="geometry"/>
                </mxCell>
                <mxCell id="328" value="&lt;font style=&quot;font-size: 20px;&quot;&gt;Du&lt;/font&gt;" style="rounded=0;whiteSpace=wrap;html=1;fontSize=30;align=left;" vertex="1" parent="285">
                    <mxGeometry x="541" y="375" width="120" height="30" as="geometry"/>
                </mxCell>
                <mxCell id="329" value="" style="rounded=1;whiteSpace=wrap;html=1;fontSize=30;" vertex="1" parent="285">
                    <mxGeometry x="691" y="375" width="140" height="60" as="geometry"/>
                </mxCell>
                <mxCell id="330" value="&lt;div style=&quot;text-align: center;&quot;&gt;&lt;span style=&quot;background-color: initial;&quot;&gt;&lt;font style=&quot;font-size: 15px;&quot;&gt;jj/mm/YYYY&lt;/font&gt;&lt;/span&gt;&lt;/div&gt;" style="rounded=0;whiteSpace=wrap;html=1;fontSize=30;align=left;" vertex="1" parent="285">
                    <mxGeometry x="701" y="405" width="120" height="30" as="geometry"/>
                </mxCell>
                <mxCell id="331" value="&lt;font style=&quot;font-size: 20px;&quot;&gt;Au&lt;/font&gt;" style="rounded=0;whiteSpace=wrap;html=1;fontSize=30;align=left;" vertex="1" parent="285">
                    <mxGeometry x="701" y="375" width="120" height="30" as="geometry"/>
                </mxCell>
                <mxCell id="332" value="&lt;span style=&quot;color: rgb(240, 240, 240); font-family: Helvetica; font-size: 20px; font-style: normal; font-variant-ligatures: normal; font-variant-caps: normal; font-weight: 400; letter-spacing: normal; orphans: 2; text-indent: 0px; text-transform: none; widows: 2; word-spacing: 0px; -webkit-text-stroke-width: 0px; background-color: rgb(42, 37, 47); text-decoration-thickness: initial; text-decoration-style: initial; text-decoration-color: initial; float: none; display: inline !important;&quot;&gt;Date du Séjour&lt;/span&gt;" style="text;whiteSpace=wrap;html=1;fontSize=15;align=center;" vertex="1" parent="285">
                    <mxGeometry x="596" y="335" width="170" height="30" as="geometry"/>
                </mxCell>
            </root>
        </mxGraphModel>
    </diagram>
</mxfile>